<svg xmlns="http://www.w3.org/2000/svg"  viewBox="0 0 128 128" width="32px" height="32px"><path fill="#fff" d="M15 124c0-5.5 4.5-10 10-10 0-5.5 4.5-10 10-10v20H15zM115.3 83.2L70 38 24.7 83.2 16.3 74.8 70 21 123.7 74.8z"/><path fill="#fff" d="M105,117V72.4L70,38L35,73v51h76v-1C111,119.7,108.3,117,105,117z"/><path fill="#71c2ff" d="M59 80H81V124H59z"/><path fill="#71c2ff" d="M81,127H59c-1.7,0-3-1.3-3-3V80c0-1.7,1.3-3,3-3h22c1.7,0,3,1.3,3,3v44C84,125.7,82.7,127,81,127z M62,121h16 V83H62V121z"/><path fill="#444b54" d="M125.9 72.6L72.1 18.9c-1.1-1.1-3.1-1.1-4.2 0L14.1 72.6c-1.2 1.2-1.2 3.1 0 4.2l8.5 8.5c.6.6 1.3.9 2.1.9s1.6-.3 2.1-.9L70 42.2l32 32v40.3c-2.9 1-5.1 3.5-5.8 6.5H38V94c0-1.7-1.3-3-3-3s-3 1.3-3 3v7.4c-4.9 1.2-8.7 5-9.7 9.9-4.9 1-8.8 4.9-9.9 9.7H4c-1.7 0-3 1.3-3 3s1.3 3 3 3h95c1.7 0 3-1.3 3-3v-1c0-1.7 1.3-3 3-3s3 1.3 3 3v1c0 1.7 1.3 3 3 3h3c1.7 0 3-1.3 3-3s-1.3-3-3-3h-.2c-.7-3-2.9-5.5-5.8-6.5V80.2l5.1 5.1c.6.6 1.3.9 2.1.9s1.6-.3 2.1-.9l8.5-8.5C127 75.7 127 73.8 125.9 72.6zM25 117c1.7 0 3-1.3 3-3 0-2.8 1.6-5.2 4-6.3V121H18.7C19.8 118.6 22.2 117 25 117zM115.3 79L72.1 35.9C71.5 35.3 70.8 35 70 35s-1.5.3-2.1.9L24.7 79l-4.2-4.2L70 25.3l49.5 49.5L115.3 79zM124 121A3 3 0 1 0 124 127 3 3 0 1 0 124 121z"/></svg>