<?xml version="1.0" encoding="iso-8859-1"?>
<!-- Generator: Adobe Illustrator 19.0.0, SVG Export Plug-In . SVG Version: 6.00 Build 0)  -->
<svg version="1.1" id="Layer_1" xmlns="http://www.w3.org/2000/svg" xmlns:xlink="http://www.w3.org/1999/xlink" x="0px" y="0px"
	 viewBox="0 0 512 512" style="enable-background:new 0 0 512 512;" xml:space="preserve">
<circle style="fill:#273B7A;" cx="256" cy="256" r="256"/>
<path style="fill:#121149;" d="M357.057,155.929L156.363,357.488l149.616,149.621c101.29-20.047,181.081-99.838,201.13-201.13
	L357.057,155.929z"/>
<path style="fill:#71E2EF;" d="M398.222,256c0-78.546-63.676-142.222-142.222-142.222S113.778,177.454,113.778,256
	S177.454,398.222,256,398.222c12.378,0,24.381-1.588,35.83-4.558l33.161,22.107c6.985,4.658,16.343-0.35,16.343-8.745v-37.245
	C375.874,343.831,398.222,302.528,398.222,256z"/>
<path style="fill:#38C6D9;" d="M256,113.778c-0.193,0-0.381,0.014-0.574,0.014v284.415c0.191,0,0.381,0.014,0.574,0.014
	c12.376,0,24.381-1.588,35.83-4.558l33.161,22.107c6.985,4.658,16.343-0.35,16.343-8.745V369.78
	c34.542-25.948,56.889-67.251,56.889-113.78C398.222,177.454,334.546,113.778,256,113.778z"/>
<path style="fill:#FFFFFF;" d="M336.198,222.322c-3.525,1.564-7.182,2.796-10.936,3.687c4.137-3.929,7.246-8.845,9-14.333
	c0.5-1.565-1.2-2.92-2.615-2.082c-5.222,3.098-10.847,5.42-16.718,6.906c-0.34,0.086-0.691,0.129-1.045,0.129
	c-1.071,0-2.108-0.396-2.929-1.117c-6.246-5.506-14.281-8.538-22.623-8.538c-3.61,0-7.254,0.562-10.831,1.672
	c-11.086,3.437-19.642,12.585-22.326,23.867c-1.007,4.23-1.277,8.468-0.81,12.59c0.053,0.474-0.171,0.805-0.309,0.96
	c-0.243,0.272-0.588,0.428-0.945,0.428c-0.04,0-0.081-0.002-0.121-0.005c-24.269-2.257-46.154-13.948-61.623-32.923
	c-0.788-0.969-2.301-0.85-2.931,0.229c-3.029,5.198-4.63,11.142-4.63,17.191c0,9.269,3.725,18.004,10.193,24.374
	c-2.72-0.646-5.354-1.662-7.801-3.02c-1.184-0.657-2.639,0.19-2.657,1.543c-0.169,13.771,7.894,26.024,19.971,31.541
	c-0.243,0.005-0.488,0.007-0.731,0.007c-1.915,0-3.853-0.183-5.761-0.55c-1.333-0.253-2.453,1.01-2.039,2.301
	c3.922,12.24,14.458,21.261,27.07,23.309c-10.466,7.025-22.656,10.731-35.34,10.731l-3.953-0.002c-1.221,0-2.251,0.795-2.56,1.976
	c-0.305,1.16,0.257,2.388,1.296,2.993c14.293,8.32,30.599,12.714,47.157,12.714c14.495,0,28.053-2.875,40.3-8.549
	c11.226-5.199,21.147-12.633,29.486-22.095c7.77-8.814,13.843-18.987,18.056-30.241c4.015-10.724,6.137-22.169,6.137-33.094V244.4
	c0-1.755,0.793-3.405,2.177-4.529c5.253-4.265,9.828-9.285,13.596-14.922C339.404,223.463,337.836,221.598,336.198,222.322
	L336.198,222.322z"/>
<path style="fill:#D8D8D8;" d="M336.198,222.322c-3.525,1.564-7.182,2.796-10.936,3.687c4.137-3.929,7.247-8.845,9-14.333
	c0.5-1.565-1.2-2.92-2.615-2.082c-5.222,3.098-10.847,5.42-16.718,6.906c-0.34,0.086-0.691,0.129-1.045,0.129
	c-1.071,0-2.108-0.396-2.927-1.117c-6.246-5.506-14.281-8.538-22.623-8.538c-3.61,0-7.254,0.562-10.831,1.672
	c-10.783,3.343-19.153,12.091-22.076,22.949v103.719c4.663-1.305,9.183-2.95,13.533-4.965c11.226-5.199,21.147-12.633,29.486-22.095
	c7.77-8.814,13.845-18.987,18.056-30.241c4.015-10.724,6.137-22.169,6.137-33.096v-0.521c0-1.755,0.793-3.405,2.177-4.529
	c5.253-4.265,9.828-9.285,13.596-14.922C339.404,223.461,337.836,221.596,336.198,222.322z"/>
<g>
</g>
<g>
</g>
<g>
</g>
<g>
</g>
<g>
</g>
<g>
</g>
<g>
</g>
<g>
</g>
<g>
</g>
<g>
</g>
<g>
</g>
<g>
</g>
<g>
</g>
<g>
</g>
<g>
</g>
</svg>
