<?xml version="1.0" encoding="iso-8859-1"?>
<!-- Generator: Adobe Illustrator 19.0.0, SVG Export Plug-In . SVG Version: 6.00 Build 0)  -->
<svg version="1.1" id="Layer_1" xmlns="http://www.w3.org/2000/svg" xmlns:xlink="http://www.w3.org/1999/xlink" x="0px" y="0px"
	 viewBox="0 0 508 508" style="enable-background:new 0 0 508 508;" xml:space="preserve">
<path style="fill:#00ABE3;" d="M504,374.8c0,68.8-56.4,123.2-125.2,123.2H129.2C60.4,498,4,443.6,4,374.8V125.2C4,56,60.4,2,129.2,2
	h249.6C447.6,2,504,56,504,125.2V374.8z"/>
<path style="fill:#FFFFFF;" d="M140,198.8c0,14.8,0.4,29.6,0.4,44c0,16,0,31.6,0,47.6c0,88.8,81.6,114,97.2,114s76.8,1.6,88,1.6
	c11.2,0,42.8-3.2,42.8-34.8s-22.4-43.6-37.6-43.6H270c-43.2,0-50-18.8-50-36.4c0-8.4,0.4-23.2,1.2-38.8h101.6
	c15.2,0,44.4-6.4,44.4-33.6c0-27.6-32-41.6-50-41.6H222c0-39.6-2.8-82.8-42-82.8c-16,0-29.2,6.8-34.8,23.2
	c-7.2,21.6-5.2,46.8-5.2,69.2C140,190,140,194.4,140,198.8"/>
<path d="M378.8,506H129.2C58,506,0,448.8,0,378.8V129.2C0,59.2,58,2,129.2,2h249.6C450,2,508,59.2,508,129.2v249.6
	C508,448.8,450,506,378.8,506z M129.2,10C62.4,10,8,63.6,8,129.2v249.6C8,444.4,62.4,498,129.2,498h249.6
	c66.8,0,121.2-53.6,121.2-119.2V129.2C500,63.2,445.6,10,378.8,10H129.2z"/>
<path d="M370,482H138c-62.8,0-114-50.4-114-112V138C24,76,75.2,25.6,138,25.6h231.2c2.4,0,4,1.6,4,4s-1.6,4-4,4H138
	C79.6,33.6,32,80.4,32,138v232c0,57.6,47.6,104,106,104h232c58.4,0,106-46.8,106-104V256c0-2.4,1.6-4,4-4s4,1.6,4,4v114
	C484,432,432.8,482,370,482z"/>
<path d="M446.8,65.2c-1.2,0-2-0.4-2.8-1.2c-19.2-19.2-46.4-30-75.2-30c-2.4,0-4-1.6-4-4s1.6-4,4-4c30.8,0,60,12,80.8,32.4
	c1.6,1.6,1.6,4,0,5.6C449.2,64.8,448,65.2,446.8,65.2z"/>
<path d="M480,232c-2.4,0-4-1.6-4-4v-55.2c0-2.4,1.6-4,4-4s4,1.6,4,4V228C484,230.4,482.4,232,480,232z"/>
<path d="M325.6,414c-5.2,0-20.8-0.4-37.6-0.4c-19.6-0.4-42-0.8-50.4-0.8c-21.6,0-101.2-29.6-101.2-118c0-10,0-19.6,0-29.6v-18
	c0-7.2,0-14-0.4-21.2c0-7.6,0-15.2-0.4-22.8c0-4.4,0-8.4,0-12.8c0-3.6,0-7.2,0-11.2c-0.4-20-0.8-40.4,5.6-59.2
	c5.6-16.8,19.6-26,38.8-26c44,0,45.6,46,46,78.8h12c2.4,0,4,1.6,4,4s-1.6,4-4,4h-16c-2.4,0-4-1.6-4-4c0-40.8-3.2-74.8-38-74.8
	c-10.8,0-25.2,3.6-31.2,20.8s-5.6,37.2-5.2,56.4c0,3.6,0,7.6,0,11.2c0,4.4,0,8.4,0,12.8c0,7.6,0,15.2,0.4,22.8c0,7.2,0,14,0.4,21.2
	v18c0,10,0,19.6,0,29.6c0,88,81.6,110,93.2,110c8.4,0,30.8,0.4,50.4,0.8c16.8,0.4,32.4,0.4,37.2,0.4c11.6,0,38.8-3.2,38.8-30.8
	c0-29.2-20-39.6-33.6-39.6H270c-36.4,0-54-13.2-54-40.4c0-7.6,0.4-19.6,0.8-34V256c0-2,2-4,4-4h101.6c27.6,0,40.4-11.6,40.4-36.4
	c0-24-12.4-35.2-39.2-35.2H286c-2.4,0-4-1.6-4-4s1.6-4,4-4h37.6c30.8,0,47.2,14.8,47.2,43.2C370.4,236,362,260,322.4,260h-98v1.2
	c-0.4,13.6-0.8,26.4-0.8,33.6c0,15.2,5.2,32.4,46,32.4h60.8c9.6,0,20,4,27.2,10.8c6.4,6,14.4,17.2,14.4,36.8
	C372.4,403.6,348.4,414,325.6,414z"/>
<g>
</g>
<g>
</g>
<g>
</g>
<g>
</g>
<g>
</g>
<g>
</g>
<g>
</g>
<g>
</g>
<g>
</g>
<g>
</g>
<g>
</g>
<g>
</g>
<g>
</g>
<g>
</g>
<g>
</g>
</svg>
